<?xml version="1.0" encoding="iso-8859-1"?>
<!-- Uploaded to: SVG Repo, www.svgrepo.com, Generator: SVG Repo Mixer Tools -->
<svg version="1.1" id="Layer_1" xmlns="http://www.w3.org/2000/svg" xmlns:xlink="http://www.w3.org/1999/xlink" 
	 viewBox="0 0 512 512" xml:space="preserve">
<polygon style="fill:#FF5023;" points="140.9,33.478 421.118,33.478 421.118,154.56 91.601,154.56 91.601,33.478 "/>
<path d="M136.977,68.844c8.813,0,15.691,4.139,15.691,15.29v18.229c0,11.151-6.877,15.29-15.691,15.29h-11.818
	c-2.27,0-3.806-1.269-3.806-2.671V71.515c0-1.402,1.536-2.671,3.806-2.671H136.977z M130.033,76.455v33.585h6.944
	c4.406,0,7.01-2.47,7.01-7.678V84.134c0-5.208-2.604-7.679-7.01-7.679C136.977,76.455,130.033,76.455,130.033,76.455z"/>
<path d="M160.079,71.515c0-1.87,2.137-2.671,4.34-2.671c2.137,0,4.34,0.801,4.34,2.671v43.401c0,1.803-2.204,2.738-4.34,2.738
	c-2.204,0-4.34-0.935-4.34-2.738V71.515z"/>
<path d="M176.772,71.515c0-1.402,1.135-2.671,2.805-2.671h13.221c8.747,0,15.825,3.338,15.825,13.954
	c0,7.679-3.739,11.819-8.748,13.354l8.748,16.225c0.267,0.334,0.334,0.801,0.334,1.069c0,2.204-2.871,4.54-5.409,4.54
	c-1.202,0-2.337-0.735-3.005-2.07l-9.481-18.429h-5.608v17.428c0,1.803-2.137,2.738-4.34,2.738c-2.137,0-4.34-0.935-4.34-2.738
	L176.772,71.515L176.772,71.515z M185.453,76.455v14.222h7.344c4.34,0,7.145-1.802,7.145-7.077s-2.805-7.145-7.145-7.145H185.453z"
	/>
<path d="M223.513,89.81h10.149c1.736,0,2.738,1.668,2.738,3.472c0,1.536-0.868,3.339-2.738,3.339h-10.149v13.421h18.896
	c1.736,0,2.738,1.803,2.738,3.873c0,1.802-0.868,3.738-2.738,3.738h-23.77c-1.937,0-3.806-0.935-3.806-2.738V71.582
	c0-1.802,1.87-2.737,3.806-2.737h23.77c1.87,0,2.738,1.936,2.738,3.738c0,2.07-1.002,3.872-2.738,3.872h-18.896V89.81z"/>
<path d="M264.911,76.455c-4.473,0-7.01,2.471-7.01,7.679v18.629c0,5.208,2.538,7.679,7.144,7.679c6.077,0,6.611-4.34,6.81-7.145
	c0.134-2.07,2.003-2.738,4.274-2.738c3.005,0,4.407,0.868,4.407,4.274c0,8.079-6.611,13.22-15.959,13.22
	c-8.413,0-15.358-4.139-15.358-15.29V84.134c0-11.151,7.012-15.29,15.424-15.29c9.281,0,15.892,4.94,15.892,12.685
	c0,3.472-1.402,4.274-4.34,4.274c-2.47,0-4.274-0.735-4.34-2.737C271.721,80.997,271.254,76.455,264.911,76.455z"/>
<path d="M314.187,68.844c1.87,0,2.738,2.002,2.738,3.872c0,2.07-1.002,3.94-2.738,3.94h-9.748v38.259
	c0,1.803-2.204,2.738-4.34,2.738c-2.204,0-4.34-0.935-4.34-2.738V76.656h-9.815c-1.736,0-2.738-1.803-2.738-3.94
	c0-1.87,0.868-3.872,2.738-3.872H314.187z"/>
<path d="M320.331,102.763V84.134c0-11.151,6.81-15.29,15.625-15.29c8.813,0,15.69,4.139,15.69,15.29v18.629
	c0,11.151-6.877,15.29-15.69,15.29C327.142,118.053,320.331,113.914,320.331,102.763z M342.966,84.134
	c0-5.275-2.671-7.679-7.01-7.679c-4.407,0-6.945,2.404-6.945,7.679v18.629c0,5.275,2.538,7.679,6.945,7.679
	c4.34,0,7.01-2.404,7.01-7.679V84.134z"/>
<path d="M359.059,71.515c0-1.402,1.135-2.671,2.805-2.671h13.221c8.747,0,15.825,3.338,15.825,13.954
	c0,7.679-3.74,11.819-8.748,13.354l8.748,16.225c0.267,0.334,0.334,0.801,0.334,1.069c0,2.204-2.871,4.54-5.409,4.54
	c-1.202,0-2.337-0.735-3.005-2.07l-9.481-18.429h-5.608v17.428c0,1.803-2.137,2.738-4.34,2.738c-2.137,0-4.34-0.935-4.34-2.738
	L359.059,71.515L359.059,71.515z M367.739,76.455v14.222h7.344c4.34,0,7.145-1.802,7.145-7.077s-2.805-7.145-7.145-7.145H367.739z"
	/>
<g>
	<path style="opacity:0.32;fill:#891C00;enable-background:new    ;" d="M391.757,33.478v26.596
		c0,35.967-29.157,65.124-65.124,65.124H91.601v29.361h329.517V33.478H391.757z"/>
	<path style="fill:#891C00;" d="M66.225,247.381V20.276c0-6.978,5.709-12.689,12.688-12.689l0,0c6.978,0,12.689,5.709,12.689,12.689
		v231.918L66.225,247.381z"/>
	<path style="fill:#891C00;" d="M421.118,252.194V20.276c0-6.978,5.709-12.689,12.688-12.689l0,0
		c6.978,0,12.689,5.709,12.689,12.689V247.38L421.118,252.194z"/>
</g>
<g>
	<rect x="66.229" y="215.829" style="fill:#781900;" width="25.375" height="29.554"/>
	<rect x="421.115" y="215.829" style="fill:#781900;" width="25.375" height="29.554"/>
</g>
<path style="fill:#FF5023;" d="M172.948,251.661c93.737,5.071,212.306,0.395,267.634-13.688c14.263-3.63,28.022,7.108,27.965,21.798
	l-0.062,8.111c-36.125,36.125-389.186,37.494-425.032,1.647l0.062-8.111c0.057-14.691,13.9-25.536,28.135-22.016
	c15.946,3.943,37.173,7.061,61.56,9.361L172.948,251.661z"/>
<path style="opacity:0.29;fill:#891C00;enable-background:new    ;" d="M44.203,255.936c-0.44,1.748-0.682,3.583-0.689,5.483
	l-0.062,8.111c35.847,35.847,388.907,34.478,425.032-1.647l0.062-8.111c0.007-1.947-0.234-3.821-0.681-5.605
	C428.84,289.495,83.693,290.876,44.203,255.936z"/>
<path d="M464.61,236.025c-3.186-2.487-6.762-4.264-10.527-5.296V20.276C454.082,9.096,444.986,0,433.805,0
	s-20.277,9.096-20.277,20.276v5.615H140.899c-4.191,0-7.588,3.396-7.588,7.588s3.397,7.588,7.588,7.588h272.629v105.904H99.19
	V33.479V20.276C99.19,9.096,90.094,0,78.913,0c-11.18,0-20.277,9.096-20.277,20.276v211.848c-3.934,1.027-7.677,2.853-11.003,5.447
	c-7.403,5.773-11.671,14.454-11.706,23.79l-0.063,8.112c-0.015,2.033,0.785,3.986,2.223,5.424
	c12.74,12.74,53.136,19.79,96.128,23.679l110.459,99.696L133.316,498.778c-3.111,2.808-3.357,7.606-0.548,10.718
	c1.497,1.66,3.562,2.504,5.636,2.504c1.812,0,3.63-0.646,5.081-1.956l112.515-101.551l112.515,101.551
	c1.451,1.31,3.269,1.956,5.081,1.956c2.073,0,4.137-0.844,5.635-2.504c2.808-3.111,2.563-7.909-0.548-10.718L267.325,398.272
	l111.358-100.506c0.092-0.083,0.173-0.173,0.259-0.259c42.501-4.238,82.223-11.572,94.909-24.257
	c1.409-1.409,2.208-3.316,2.223-5.309l0.062-8.139C476.171,250.435,471.97,241.77,464.61,236.025z M428.706,20.276
	c0-2.764,2.335-5.099,5.1-5.099c2.765,0,5.1,2.335,5.1,5.099v210.3c-0.065,0.016-0.13,0.027-0.195,0.044
	c-3.109,0.791-6.453,1.555-10.004,2.293v-78.353V33.479L428.706,20.276L428.706,20.276z M78.913,15.176c2.764,0,5.1,2.335,5.1,5.099
	v13.203V154.56v79.806c-3.625-0.72-7.033-1.469-10.201-2.246V20.276C73.813,17.512,76.149,15.176,78.913,15.176z M255.999,388.05
	l-97.029-87.574c38.475,2.477,75.204,2.817,92.321,2.817c1.743,0,3.283-0.004,4.6-0.009c14.38-0.056,55.236-0.509,98.053-3.636
	L255.999,388.05z M460.924,264.264c-5.966,3.982-22.803,10.965-69.954,16.623c-37.191,4.463-85.183,7.027-135.135,7.221
	c-49.956,0.197-97.924-1.999-135.081-6.173c-46.882-5.267-63.696-12.066-69.685-15.997l0.034-4.49
	c0.018-4.677,2.155-9.018,5.862-11.909c3.682-2.871,8.37-3.88,12.863-2.77c15.782,3.902,36.867,7.116,62.669,9.549
	c4.169,0.389,7.874-2.67,8.267-6.843s-2.67-7.874-6.843-8.267c-12.845-1.212-24.442-2.614-34.732-4.195v-74.867h314.34v73.546
	c-58.007,9.412-154.331,13.035-240.172,8.391c-4.182-0.193-7.761,2.983-7.988,7.167c-0.227,4.185,2.983,7.761,7.167,7.988
	c86.062,4.654,209.907,1.362,269.916-13.911c4.508-1.147,9.18-0.177,12.818,2.662c3.631,2.834,5.704,7.118,5.686,11.725
	L460.924,264.264z"/>
</svg>