<svg width="18" height="12" viewBox="0 0 18 12" fill="none" xmlns="http://www.w3.org/2000/svg">
<path d="M7.33342 5.16775H4.91758L4.91842 5.16025C5.02723 4.62745 5.24019 4.12138 5.54508 3.67109C5.99879 3.0026 6.6352 2.47872 7.37842 2.16192C7.63008 2.05525 7.89258 1.97359 8.16008 1.91942C8.71499 1.80692 9.28684 1.80692 9.84175 1.91942C10.6392 2.08283 11.371 2.47726 11.9459 3.05359L13.1259 1.87692C12.5941 1.34495 11.9649 0.920288 11.2726 0.626087C10.9195 0.476611 10.5524 0.362715 10.1767 0.286087C9.40161 0.128596 8.60272 0.128596 7.82758 0.286087C7.45162 0.363032 7.08426 0.477206 6.73092 0.62692C5.68969 1.06867 4.79836 1.802 4.16425 2.73859C3.73749 3.37013 3.43905 4.07941 3.28591 4.82609C3.26258 4.93859 3.25008 5.05359 3.23341 5.16775H0.666748L4.00008 8.50109L7.33342 5.16775ZM10.6667 6.83442H13.0826L13.0817 6.84109C12.864 7.90922 12.2344 8.84866 11.3292 9.45609C10.8791 9.76123 10.373 9.97422 9.84008 10.0828C9.28545 10.1953 8.71388 10.1953 8.15925 10.0828C7.62644 9.97394 7.12037 9.76098 6.67008 9.45609C6.44893 9.3065 6.24245 9.1363 6.05341 8.94775L4.87508 10.1261C5.40717 10.6579 6.03669 11.0823 6.72925 11.3761C7.08258 11.5261 7.45175 11.6403 7.82508 11.7161C8.59993 11.8737 9.39857 11.8737 10.1734 11.7161C11.6672 11.4061 12.9811 10.5256 13.8359 9.26192C14.2623 8.63085 14.5604 7.92214 14.7134 7.17609C14.7359 7.06359 14.7492 6.94859 14.7659 6.83442H17.3334L14.0001 3.50109L10.6667 6.83442Z" fill="#8A8A8A"/>
</svg>
