<svg width="18" height="18" viewBox="0 0 18 18" fill="none" xmlns="http://www.w3.org/2000/svg">
<path d="M16.485 17.1545L10.223 10.8925C9.72298 11.3185 9.14798 11.6482 8.49798 11.8815C7.84798 12.1149 7.19465 12.2315 6.53798 12.2315C4.93665 12.2315 3.58132 11.6772 2.47198 10.5685C1.36265 9.4592 0.807983 8.1042 0.807983 6.50353C0.807983 4.90286 1.36198 3.5472 2.46998 2.43653C3.57865 1.3252 4.93332 0.769531 6.53398 0.769531C8.13532 0.769531 9.49132 1.3242 10.602 2.43353C11.7127 3.54286 12.268 4.89853 12.268 6.50053C12.268 7.1952 12.145 7.86753 11.899 8.51753C11.6523 9.16753 11.329 9.72353 10.929 10.1855L17.191 16.4465L16.485 17.1545ZM6.53798 11.2305C7.86465 11.2305 8.98498 10.7739 9.89898 9.86053C10.8123 8.9472 11.269 7.82686 11.269 6.49953C11.269 5.17286 10.8123 4.05286 9.89898 3.13953C8.98565 2.2262 7.86565 1.76953 6.53898 1.76953C5.21232 1.76953 4.09198 2.2262 3.17798 3.13953C2.26465 4.05286 1.80798 5.17286 1.80798 6.49953C1.80798 7.8262 2.26465 8.9462 3.17798 9.85953C4.09132 10.7729 5.21132 11.2305 6.53798 11.2305Z" fill="#222222" fill-opacity="0.3"/>
</svg>
