<svg width="65" height="60" viewBox="0 0 65 60" fill="none" xmlns="http://www.w3.org/2000/svg">
<path d="M64.2144 17.6563C64.1705 17.2937 63.987 16.9709 63.6985 16.7467C63.41 16.5225 63.0528 16.4249 62.6892 16.471C60.338 16.7735 58.5188 17.9631 57.4065 18.908L56.6353 19.5623L56.5098 18.5584C56.4336 17.9502 56.3339 17.3366 56.2127 16.7338L56.1301 16.323L56.5055 16.1364C58.2217 15.2836 59.541 13.8882 60.2221 12.2084C61.2154 9.81433 60.8957 6.8571 59.3887 4.48767C58.5113 3.10721 57.5684 1.83722 56.5838 0.713109C56.0893 0.148908 55.228 0.0909865 54.6627 0.585466C53.0323 2.01098 51.9318 4.08973 51.4813 6.59431L51.4792 6.60933C51.0962 8.88436 51.3236 11.0371 52.1367 12.8348C56.499 22.4616 52.9991 34.017 43.9955 39.7137C43.5321 40.0066 43.1524 40.4131 42.896 40.8904L42.7416 41.1779H33.7948V31.9372L41.3085 35.8383C41.7751 36.0808 42.3082 36.04 42.7351 35.73C43.162 35.42 43.3658 34.9255 43.2789 34.4064L41.64 24.5415L48.7633 17.5244C49.1376 17.1554 49.2642 16.6351 49.1011 16.1332C48.9381 15.6312 48.5305 15.2858 48.0103 15.2075L38.155 13.723L33.6736 3.81514C33.4473 3.3153 32.9839 3.01711 32.4326 3.01711C31.8823 3.01711 31.4179 3.3153 31.1915 3.81514L26.7101 13.723L16.8548 15.2075C16.3346 15.2858 15.927 15.6322 15.764 16.1342C15.601 16.6362 15.7275 17.1554 16.1019 17.5244L23.2252 24.5415L21.5862 34.4064C21.5004 34.9255 21.7031 35.42 22.13 35.73C22.5569 36.04 23.09 36.0808 23.5566 35.8383L31.0703 31.9372V41.1779H22.0946L21.9369 40.9054C21.5165 40.1803 20.8139 39.6955 20.195 39.2675C16.222 36.527 13.2562 32.4167 11.8446 27.695C10.3816 22.7984 10.7098 17.5158 12.7692 12.8198C13.5823 10.9642 13.8011 8.87471 13.4203 6.60933L13.4171 6.58895C12.9687 4.08973 11.8682 2.01206 10.2368 0.585466C9.67255 0.0920592 8.81016 0.148908 8.31568 0.713109C7.33101 1.83722 6.3871 3.10721 5.51184 4.4866C4.00373 6.85817 3.68408 9.8154 4.67519 12.2041C5.35738 13.8882 6.67671 15.2836 8.39291 16.1364L8.76833 16.323L8.68573 16.7338C8.56345 17.3388 8.4637 17.9545 8.38861 18.5627L8.26418 19.5634L7.49405 18.9123C5.90978 17.5748 4.02197 16.707 2.17598 16.47C1.81451 16.4238 1.45624 16.5214 1.16664 16.7456C0.8781 16.9698 0.694674 17.2927 0.649624 17.6552C0.440462 19.3639 0.370742 20.8978 0.436173 22.3437C0.514474 25.11 1.95501 27.7357 4.19358 29.2052L4.20323 29.2117C5.68989 30.2317 7.53481 30.6619 9.45803 30.4152L9.87312 30.3615L10.0329 30.7487C10.2636 31.3086 10.5188 31.8696 10.7913 32.4156L11.2482 33.3284L10.2357 33.2018C8.15479 32.9423 6.26052 33.2254 4.60546 34.0449C4.27831 34.2069 4.02625 34.4986 3.91363 34.8451C3.801 35.1916 3.83318 35.5756 4.00372 35.8984C4.65588 37.1394 5.43139 38.5735 6.39675 39.8854L6.4064 39.8982C8.01534 42.2258 10.6122 43.6159 13.3538 43.6159C15.1161 43.6159 16.8033 42.9606 18.2332 41.7217L18.556 41.4428L18.9057 41.6874C19.2007 41.8944 19.3616 42.0199 19.4624 42.1196L19.6158 42.2719L19.6233 42.4875C19.6233 42.5026 19.6233 42.5197 19.6233 42.539V56.4424H17.1691C16.4183 56.4424 15.8069 57.0538 15.8069 57.8046C15.8069 58.5555 16.4183 59.1669 17.1691 59.1669H47.6992C48.4501 59.1669 49.0615 58.5555 49.0615 57.8046C49.0615 57.0538 48.4501 56.4424 47.6992 56.4424H45.2451V42.1475L45.4982 41.9866C45.658 41.8847 45.8125 41.7818 45.997 41.6584L46.3456 41.4246L46.6609 41.7013C48.095 42.9584 49.8316 43.6245 51.6819 43.6267H51.743C54.5125 43.6267 57.0976 42.1068 58.8374 39.4574C59.5839 38.3204 60.3562 37.1448 60.9569 35.8394C61.2669 35.1658 60.9891 34.3796 60.3251 34.0503C58.6786 33.234 56.8369 32.9637 54.696 33.2233L53.6866 33.3456L54.1425 32.436C54.4139 31.8932 54.6702 31.3269 54.9051 30.752L55.0628 30.3647L55.4779 30.4162C55.8137 30.4581 56.1515 30.4795 56.483 30.4795C58.0018 30.4795 59.4745 30.029 60.7413 29.1773C62.9477 27.6853 64.3614 25.066 64.429 22.3415V22.3297C64.4965 20.8956 64.4268 19.366 64.2166 17.6531L64.2144 17.6563ZM8.31353 27.7636C7.36641 27.7486 6.47398 27.4708 5.73279 26.9581L5.70277 26.9377C4.20753 25.9627 3.20891 24.1285 3.16064 22.2643V22.2385C3.13061 21.6164 3.13061 20.9621 3.16064 20.2917L3.19603 19.4615L3.94366 19.823C4.83394 20.2531 5.67166 20.8602 6.36779 21.5778C7.47367 22.7266 8.19232 23.988 8.50552 25.3266L8.51304 25.3642C8.6085 25.953 8.72434 26.5333 8.85628 27.09L9.01824 27.7733L8.31568 27.7626L8.31353 27.7636ZM10.0608 12.2192C9.9525 12.483 9.84094 12.7565 9.73582 13.0408L9.49126 13.6994L8.91313 13.2993C8.13333 12.7598 7.54124 12.0282 7.20015 11.183L7.19371 11.168C6.53404 9.58479 6.77002 7.58541 7.81047 5.94859C8.16336 5.39297 8.53234 4.85022 8.90776 4.33643L9.41833 3.63708L9.83023 4.39865C10.2518 5.17844 10.5564 6.07623 10.7355 7.06626C11.1517 9.55368 10.6218 10.8483 10.0619 12.2181L10.0608 12.2192ZM15.808 40.1439C15.0775 40.6105 14.1776 40.8904 13.2219 40.8904C11.6741 40.8904 9.97824 40.1567 8.60636 38.2947C8.26312 37.8291 7.92095 37.31 7.56055 36.7061L7.12292 35.9735L7.97136 35.8834C8.86593 35.7879 9.81198 35.8469 10.7838 36.0572C12.412 36.4401 13.7142 37.1083 14.6646 38.0447L14.6828 38.064C15.0775 38.4942 15.483 38.905 15.8884 39.2868L16.3979 39.7674L15.808 40.1449V40.1439ZM24.7183 32.1667L26.0269 24.2915C26.0998 23.855 25.9539 23.4088 25.6396 23.0988L19.9526 17.4965L27.8482 16.3069C28.3073 16.2383 28.6945 15.9444 28.8865 15.5218L32.4326 7.68195L35.9787 15.5218C36.1696 15.9444 36.5579 16.2383 37.017 16.3069L44.9115 17.4965L39.2244 23.0988C38.9091 23.4098 38.7643 23.8561 38.8372 24.2926L40.1458 32.1678L39.1761 31.6648C33.8259 28.8867 33.1748 28.5488 33.0944 28.507C32.6321 28.2849 32.2105 28.2785 31.8051 28.4887L24.7193 32.1678L24.7183 32.1667ZM42.5185 56.4445H22.3445V43.9034H42.5185V56.4445ZM56.9506 35.892L57.8291 35.9778L57.3604 36.7254C57.1029 37.1362 56.8294 37.5535 56.5645 37.9568C56.4754 38.093 56.3864 38.2281 56.2985 38.3622L56.2813 38.388C55.0757 40.0248 53.368 40.9065 51.683 40.9065C50.7852 40.9065 49.8927 40.6566 49.0861 40.1363L48.4951 39.7556L49.01 39.2772C49.4465 38.8717 49.8702 38.4491 50.2671 38.0211L50.3025 37.9868C52.0015 36.4615 54.548 35.6592 56.9506 35.893V35.892ZM55.4071 13.6994L55.1625 13.0408C55.0692 12.7909 54.9663 12.5463 54.8569 12.2889C54.3302 11.0457 53.7338 9.63734 54.1618 7.07484V7.06734C54.342 6.07623 54.6466 5.17952 55.0682 4.39865L55.48 3.63708L55.9895 4.33643C56.365 4.85129 56.735 5.39511 57.0879 5.95073C58.1273 7.58541 58.3644 9.58479 57.7036 11.168L57.6982 11.183C57.3572 12.0293 56.764 12.7608 55.9842 13.3004L55.406 13.6994H55.4071ZM61.7056 22.2257V22.26C61.6648 24.0974 60.6887 25.9273 59.2171 26.9216C58.419 27.4579 57.5416 27.7411 56.6106 27.7626L55.907 27.7786L56.0657 27.0922C56.1311 26.8079 56.1837 26.5312 56.2384 26.2373C56.5023 24.8311 56.7747 23.3766 58.5306 21.581C59.2321 20.8581 60.0591 20.251 60.9204 19.8284L61.6713 19.4594L61.7066 20.2949C61.7356 20.96 61.7345 21.61 61.7056 22.2257Z" fill="#121212"/>
</svg>
