<svg width="63" height="60" viewBox="0 0 63 60" fill="none" xmlns="http://www.w3.org/2000/svg">
<path d="M31.4179 49.3097C32.0944 49.3097 32.6428 48.7613 32.6428 48.0848C32.6428 47.4083 32.0944 46.8599 31.4179 46.8599C30.7414 46.8599 30.1929 47.4083 30.1929 48.0848C30.1929 48.7613 30.7414 49.3097 31.4179 49.3097Z" fill="#121212"/>
<path d="M59.3842 47.5746C57.4738 45.7586 54.9671 44.6302 52.3832 44.3964C55.9979 43.9084 58.7942 40.8042 58.7942 37.0576C58.7942 32.9731 55.4713 29.6501 51.3868 29.6501C47.3022 29.6501 43.9793 32.9731 43.9793 37.0576C43.9793 40.8021 46.7724 43.9041 50.3839 44.3953C47.6508 44.6367 45.009 45.8444 43.1309 47.6807C42.7372 47.168 42.3114 46.6811 41.8544 46.2231C39.3445 43.7121 36.087 42.2179 32.5838 41.9455C37.4728 41.3673 41.2774 37.1981 41.2774 32.1568C41.2774 26.7208 36.855 22.2995 31.4201 22.2995C25.9851 22.2995 21.5627 26.7219 21.5627 32.1568C21.5627 37.2024 25.3727 41.3738 30.267 41.9466C28.0628 42.1192 25.9208 42.781 24.0115 43.8923C22.3436 44.8619 20.8806 46.1555 19.7082 47.6807C17.8301 45.8444 15.1882 44.6356 12.4552 44.3953C16.0667 43.9041 18.8598 40.8021 18.8598 37.0576C18.8598 32.9731 15.5368 29.6501 11.4523 29.6501C7.36778 29.6501 4.04482 32.9731 4.04482 37.0576C4.04482 40.8042 6.84113 43.9084 10.4558 44.3964C7.87191 44.6292 5.36521 45.7586 3.45489 47.5746C1.226 49.6919 0 52.4828 0 55.4336V57.8834C0 58.5914 0.573848 59.1663 1.28285 59.1663H61.5541C62.262 59.1663 62.8369 58.5924 62.8369 57.8834V55.4336C62.8369 52.4828 61.6109 49.6919 59.3842 47.5746ZM46.5439 37.0576C46.5439 34.3868 48.716 32.2147 51.3868 32.2147C54.0576 32.2147 56.2296 34.3868 56.2296 37.0576C56.2296 39.7284 54.0576 41.9004 51.3868 41.9004C48.716 41.9004 46.5439 39.7284 46.5439 37.0576ZM24.1252 32.1579C24.1252 28.1367 27.3967 24.8652 31.4179 24.8652C35.4391 24.8652 38.7106 28.1367 38.7106 32.1579C38.7106 36.1791 35.4391 39.4506 31.4179 39.4506C27.3967 39.4506 24.1252 36.1791 24.1252 32.1579ZM6.6073 37.0576C6.6073 34.3868 8.77934 32.2147 11.4501 32.2147C14.121 32.2147 16.293 34.3868 16.293 37.0576C16.293 39.7284 14.121 41.9004 11.4501 41.9004C8.77934 41.9004 6.6073 39.7284 6.6073 37.0576ZM2.56462 55.4336C2.56462 50.816 6.63411 46.916 11.4501 46.916C14.0727 46.916 16.6727 48.0712 18.2923 49.9096C17.2315 51.9712 16.6706 54.2655 16.6609 56.6006H2.56462V55.4325V55.4336ZM19.2255 56.6017C19.2362 54.4275 19.824 52.2983 20.9278 50.4395C23.118 46.7551 27.1382 44.4661 31.4179 44.4661C34.6754 44.4661 37.7378 45.7339 40.0396 48.0379C40.7604 48.7587 41.3889 49.5664 41.9081 50.4395C43.0129 52.2983 43.6007 54.4286 43.6114 56.6017H19.2255ZM60.2723 56.6017H46.176C46.1674 54.2666 45.6054 51.9723 44.5446 49.9107C46.1642 48.0722 48.7642 46.917 51.3868 46.917C56.2028 46.917 60.2723 50.8181 60.2723 55.4347V56.6027V56.6017Z" fill="#121212"/>
<path d="M25.7095 12.4375L24.8117 17.674C24.7291 18.1556 24.9275 18.6415 25.3222 18.9279C25.717 19.2154 26.2404 19.2529 26.6727 19.0255L31.3739 16.5531L36.0763 19.0255C36.264 19.1242 36.4688 19.1725 36.6726 19.1725C36.9386 19.1725 37.2036 19.0899 37.4267 18.9279C37.8214 18.6404 38.0188 18.1546 37.9362 17.6729L37.0373 12.4365L40.8419 8.72843C41.1915 8.38734 41.317 7.87785 41.1669 7.4134C41.0156 6.94896 40.6145 6.61109 40.1318 6.5403L34.8782 5.77767L32.5259 0.968071C32.3103 0.5283 31.8641 0.24942 31.3739 0.24942C30.8837 0.24942 30.4375 0.5283 30.2219 0.968071L27.8697 5.77767L22.616 6.5403C22.1334 6.61002 21.7311 6.94896 21.581 7.4134C21.4297 7.87785 21.5563 8.38734 21.906 8.72843L25.7105 12.4365L25.7095 12.4375ZM28.908 8.22001C29.3274 8.15887 29.6899 7.89501 29.8755 7.51423L31.3728 4.45192L32.8702 7.51423C33.0569 7.89501 33.4183 8.15887 33.8377 8.22001L37.1896 8.70698L34.7634 11.071C34.4609 11.366 34.3225 11.7907 34.3944 12.2069L34.9683 15.547L31.9692 13.9703C31.596 13.774 31.1497 13.774 30.7754 13.9703L27.7775 15.547L28.3502 12.2069C28.4221 11.7907 28.2837 11.366 27.9812 11.0721L25.555 8.70805L28.9069 8.22108L28.908 8.22001Z" fill="#121212"/>
<path d="M47.7248 20.4158L47.1188 23.9512C47.0362 24.4317 47.2336 24.9187 47.6294 25.2051C48.0241 25.4925 48.5475 25.5301 48.9798 25.3027L52.1558 23.6337L55.3318 25.3027C55.5195 25.4013 55.7244 25.4496 55.9282 25.4496C56.1942 25.4496 56.4591 25.367 56.6822 25.2051C57.0769 24.9176 57.2743 24.4317 57.1928 23.9512L56.5868 20.4158L59.1557 17.9113C59.5053 17.5702 59.6308 17.0607 59.4796 16.5963C59.3284 16.1318 58.9272 15.7939 58.4445 15.7232L54.8942 15.2072L53.3067 11.9905C53.0911 11.5528 52.6449 11.275 52.1569 11.275C51.6688 11.275 51.2226 11.5518 51.007 11.9894L49.4185 15.2072L45.8681 15.7232C45.3855 15.7929 44.9843 16.1318 44.8331 16.5963C44.6818 17.0607 44.8084 17.5702 45.157 17.9113L47.7259 20.4158H47.7248ZM50.4536 17.6496C50.8708 17.5884 51.2323 17.3267 51.4189 16.9481L52.1547 15.4561L52.8905 16.947C53.0772 17.3256 53.4386 17.5884 53.8559 17.6485L55.5024 17.8877L54.3107 19.0493C54.0082 19.3443 53.8709 19.768 53.9417 20.1841L54.2227 21.8231L52.75 21.0497C52.3768 20.8535 51.9305 20.8535 51.5573 21.0497L50.0835 21.8242L50.3645 20.1852C50.4364 19.769 50.298 19.3454 49.9956 19.0504L48.8039 17.8888L50.4503 17.6496H50.4536Z" fill="#121212"/>
<path d="M6.0742 20.4158L5.46817 23.9512C5.38558 24.4317 5.58294 24.9187 5.97873 25.2051C6.20184 25.367 6.46677 25.4496 6.73278 25.4496C6.93658 25.4496 7.14145 25.4013 7.32915 25.3027L10.5052 23.6337L13.6812 25.3027C14.1134 25.5301 14.6369 25.4914 15.0316 25.2051C15.4263 24.9176 15.6237 24.4317 15.5422 23.9512L14.9361 20.4158L17.505 17.9113C17.8547 17.5702 17.9802 17.0607 17.829 16.5963C17.6777 16.1318 17.2766 15.7939 16.7939 15.7232L13.2435 15.2072L11.6561 11.9905C11.4405 11.5528 10.9943 11.275 10.5062 11.275C10.0182 11.275 9.57199 11.5518 9.35639 11.9894L7.76785 15.2072L4.2175 15.7232C3.73483 15.7929 3.33367 16.1318 3.18243 16.5963C3.03119 17.0607 3.15776 17.5702 3.50636 17.9113L6.07527 20.4158H6.0742ZM8.80293 17.6496C9.22017 17.5884 9.58164 17.3267 9.76828 16.9481L10.5041 15.4561L11.2399 16.947C11.4265 17.3256 11.788 17.5884 12.2053 17.6485L13.8517 17.8877L12.66 19.0493C12.3576 19.3443 12.2203 19.768 12.2911 20.1841L12.5721 21.8231L11.0994 21.0497C10.7261 20.8535 10.2799 20.8535 9.90664 21.0497L8.43287 21.8242L8.7139 20.1852C8.78576 19.769 8.6474 19.3454 8.34492 19.0504L7.15325 17.8888L8.79971 17.6496H8.80293Z" fill="#121212"/>
<path d="M36.8185 48.415C36.2264 48.0257 35.4316 48.1908 35.0423 48.7829C34.6529 49.375 34.8181 50.1698 35.4102 50.5592C36.5343 51.2982 37.4331 52.3268 38.0081 53.5357C38.2279 53.9969 38.687 54.2672 39.1665 54.2672C39.351 54.2672 39.5387 54.2275 39.7167 54.1428C40.356 53.8382 40.6285 53.0734 40.3238 52.4341C39.5473 50.8016 38.3352 49.4126 36.8185 48.4161V48.415Z" fill="#121212"/>
</svg>
