<svg width="69" height="60" viewBox="0 0 69 60" fill="none" xmlns="http://www.w3.org/2000/svg">
<path d="M45.7994 21.667C42.8433 20.5268 39.5108 21.0845 37.0856 23.1235L34.712 25.1196L32.3384 23.115C29.9143 21.0845 26.5721 20.5268 23.6247 21.6584C20.6686 22.7975 18.5695 25.4457 18.133 28.5819V28.6163C17.3961 35.3081 17.4809 41.8627 18.3894 48.0837C18.3894 48.0923 18.3894 48.1009 18.3979 48.1095V48.1363C18.8087 50.4059 20.7973 52.0255 23.0594 52.0255C23.2482 52.0255 23.4284 52.0159 23.6161 51.9912C24.1041 51.9311 24.5589 51.8035 24.9868 51.6147L25.1499 58.0921C25.1681 58.8804 25.8192 59.5143 26.6065 59.5143H26.6408C27.4463 59.4972 28.0802 58.8279 28.063 58.0234L27.797 47.4166C27.797 47.2879 27.797 47.1592 27.7884 47.023C27.7884 46.9972 27.7799 46.9801 27.7799 46.9629L27.3948 31.7461C27.3776 30.9406 26.7094 30.3067 25.9039 30.3238C25.0984 30.341 24.4645 31.0092 24.4817 31.8147L24.8764 47.4005C24.8249 48.2747 24.1567 49.004 23.2739 49.1059C22.3225 49.2164 21.4484 48.5739 21.2693 47.6322C20.4026 41.6772 20.3179 35.3961 21.029 28.9702C21.3197 26.8969 22.7173 25.1325 24.679 24.3774C26.6408 23.6234 28.861 23.9923 30.471 25.3459L33.7778 28.139C33.7864 28.1486 33.8035 28.1572 33.8121 28.1658C33.8293 28.1829 33.8464 28.1915 33.8625 28.2076C33.8883 28.2248 33.914 28.2419 33.9397 28.2591C33.9569 28.2677 33.9655 28.2763 33.9826 28.2848C34.0256 28.3106 34.0685 28.3277 34.1103 28.3535C34.1167 28.3535 34.1228 28.3563 34.1285 28.3621C34.1703 28.3792 34.2057 28.3964 34.2476 28.4135C34.2562 28.4135 34.2733 28.4221 34.2819 28.4221C34.3162 28.4307 34.3495 28.4393 34.3849 28.4479C34.402 28.4479 34.4095 28.4564 34.4267 28.4564C34.461 28.4661 34.4953 28.4661 34.5393 28.4747C34.5479 28.4747 34.564 28.4747 34.5736 28.4833C34.6251 28.4918 34.667 28.4918 34.7184 28.4918C34.7699 28.4918 34.8128 28.4918 34.8643 28.4833C34.8729 28.4833 34.8901 28.4833 34.8986 28.4747C34.933 28.4661 34.9673 28.4661 35.0102 28.4564C35.0273 28.4564 35.0359 28.4479 35.0531 28.4479C35.0874 28.4393 35.1217 28.4307 35.1561 28.4221C35.1646 28.4221 35.1818 28.4135 35.1904 28.4135C35.2333 28.3964 35.2665 28.3878 35.3105 28.3621C35.3162 28.3621 35.322 28.3592 35.3277 28.3535C35.3706 28.3363 35.4135 28.3106 35.4553 28.2848C35.4735 28.2763 35.4896 28.2677 35.4993 28.2591C35.524 28.2419 35.5497 28.2248 35.5754 28.2076C35.5926 28.199 35.6098 28.1819 35.6269 28.1658C35.6355 28.1572 35.6527 28.1486 35.6613 28.139L38.9691 25.3459C40.5791 23.9923 42.7993 23.6234 44.7611 24.3774C46.7229 25.1314 48.1194 26.8969 48.41 28.9788C49.2767 35.2073 49.1898 41.4787 48.1708 47.614C47.9992 48.5568 47.1176 49.2078 46.1576 49.0963C45.2062 48.9847 44.4951 48.1449 44.5466 47.186C44.5552 47.083 44.5466 46.9715 44.5294 46.8771L44.907 32.011C44.9241 31.2055 44.2902 30.5383 43.4847 30.5201C42.6792 30.5029 42.0099 31.1368 41.9927 31.9424L41.3331 58.0331C41.3159 58.8386 41.9509 59.5068 42.7553 59.5229H42.7897C43.578 59.5229 44.2291 58.8976 44.2462 58.1007L44.4093 51.6061C44.8469 51.8035 45.3092 51.9397 45.8069 51.9998C45.9946 52.0255 46.1844 52.0341 46.3635 52.0341C48.617 52.0341 50.6142 50.4145 51.0239 48.1449V48.1277C52.104 41.6922 52.1898 35.1215 51.2899 28.5916C50.8534 25.4553 48.7543 22.8082 45.7983 21.6691L45.7994 21.667Z" fill="#121212"/>
<path d="M34.7281 20.208C38.996 20.208 42.4658 16.7382 42.4658 12.4714C42.4658 8.20469 38.996 4.7338 34.7281 4.7338C30.4603 4.7338 26.9915 8.20362 26.9915 12.4714C26.983 16.7296 30.4624 20.208 34.7281 20.208ZM34.7281 7.63837C37.3935 7.63837 39.5526 9.80607 39.5526 12.4629C39.5526 15.1197 37.3849 17.2863 34.7281 17.2863C32.0713 17.2863 29.9047 15.1186 29.9047 12.4629C29.9047 9.80714 32.0638 7.63837 34.7281 7.63837Z" fill="#121212"/>
<path d="M19.0319 23.8521C19.5542 23.2343 19.4684 22.3183 18.8613 21.7949L15.5449 19.0019C13.1208 16.9715 9.77756 16.4148 6.83116 17.5453C3.8751 18.6844 1.77605 21.3326 1.33843 24.4689C0.438533 30.9977 0.524336 37.5695 1.59585 44.0039V44.0211C2.00665 46.2928 3.99524 47.9124 6.25733 47.9124C6.4461 47.9124 6.6263 47.9028 6.814 47.877C7.3031 47.818 7.7568 47.6883 8.18476 47.5006L8.3478 53.9436C8.36496 54.7319 9.01495 55.3658 9.8033 55.3658H9.83763C10.6431 55.3487 11.277 54.6805 11.2599 53.8749L10.9939 43.2928C10.9939 43.1651 10.9939 43.045 10.9853 42.9163C10.9853 42.8991 10.9767 42.882 10.9767 42.8573L10.5992 27.6223C10.582 26.8168 9.91486 26.1829 9.10934 26.2C8.30383 26.2172 7.66993 26.8865 7.68709 27.6909L8.08073 43.2767C8.02924 44.1509 7.36102 44.8791 6.47828 44.9907C5.52689 45.1022 4.64415 44.4512 4.46503 43.5084C3.445 37.3732 3.35919 31.1017 4.22477 24.8732C4.51544 22.7913 5.91303 21.0258 7.87479 20.2718C9.83656 19.5178 12.0568 19.8857 13.6668 21.2393L16.9746 24.0323C17.2578 24.2468 17.5914 24.367 17.9174 24.367C18.3282 24.367 18.7401 24.1868 19.0308 23.8532L19.0319 23.8521Z" fill="#121212"/>
<path d="M17.9357 16.0794C22.2024 16.0794 25.6722 12.6085 25.6722 8.34175C25.6722 4.07499 22.2024 0.605164 17.9357 0.605164C13.6689 0.605164 10.198 4.07499 10.198 8.34175C10.198 12.6085 13.6689 16.0794 17.9357 16.0794ZM17.9357 3.51831C20.6 3.51831 22.7591 5.68602 22.7591 8.34175C22.7591 10.9975 20.5914 13.1663 17.9357 13.1663C15.2799 13.1663 13.1112 10.9985 13.1112 8.34175C13.1112 5.68494 15.2789 3.51831 17.9357 3.51831Z" fill="#121212"/>
<path d="M51.5141 16.0794C55.782 16.0794 59.2507 12.6085 59.2507 8.34175C59.2507 4.07499 55.782 0.605164 51.5141 0.605164C47.2463 0.605164 43.7765 4.07499 43.7765 8.34175C43.7765 12.6085 47.2463 16.0794 51.5141 16.0794ZM51.5141 3.51831C54.1795 3.51831 56.3386 5.68602 56.3386 8.34175C56.3386 10.9975 54.1699 13.1663 51.5141 13.1663C48.8584 13.1663 46.6896 10.9985 46.6896 8.34175C46.6896 5.68494 48.8488 3.51831 51.5141 3.51831Z" fill="#121212"/>
<path d="M68.076 24.4678C67.6395 21.3315 65.5404 18.6833 62.5844 17.5442C59.6283 16.4051 56.2947 16.9618 53.8706 19.0008L50.5553 21.7938C49.9375 22.3162 49.8613 23.2332 50.3837 23.851C50.6754 24.1932 51.0862 24.3648 51.4981 24.3648C51.8327 24.3648 52.1663 24.2533 52.4323 24.0216L55.7391 21.2286C57.3491 19.875 59.5693 19.5071 61.5311 20.2611C63.4928 21.0141 64.8894 22.7795 65.1811 24.8614C66.0467 31.091 65.9609 37.3624 64.9419 43.4977C64.7703 44.4394 63.8886 45.0915 62.9276 44.9789C61.9773 44.8684 61.2662 44.0275 61.3176 43.0686C61.3262 42.9581 61.3176 42.8466 61.3005 42.7436L61.677 27.6898C61.6952 26.8843 61.0613 26.2161 60.2558 26.1989C59.4492 26.1743 58.782 26.8168 58.7649 27.6212L58.1052 53.8739C58.087 54.6794 58.7209 55.3476 59.5264 55.3648H59.5618C60.3502 55.3648 61.0012 54.7395 61.0173 53.9425L61.1803 47.4823C61.6169 47.6786 62.0877 47.817 62.5854 47.876C62.7742 47.9017 62.9619 47.9114 63.1421 47.9114C65.3956 47.9114 67.3928 46.2917 67.8036 44.02V44.0028C68.8998 37.5684 68.9856 30.9966 68.0771 24.4678H68.076Z" fill="#121212"/>
</svg>
