<svg width="59" height="60" viewBox="0 0 59 60" fill="none" xmlns="http://www.w3.org/2000/svg">
<path d="M58.9219 1.6694C58.8801 0.91856 58.2837 0.321104 57.5329 0.279271C57.5296 0.279271 57.5275 0.279271 57.5232 0.278198C57.3344 0.269617 56.8099 0.249237 56.0065 0.249237C53.3667 0.249237 48.0411 0.471272 42.0429 1.95258C34.4755 3.82325 28.354 7.0551 23.8479 11.5634C21.8989 13.5124 20.1687 15.7885 18.7046 18.3285L18.5984 18.513L18.5276 18.6353L18.4268 18.5355L16.2933 16.402C16.0209 16.1285 15.6401 15.9708 15.2518 15.9708C15.0319 15.9708 14.8206 16.018 14.6243 16.1113L0.874197 22.6233C0.344316 22.8754 0.0139355 23.4181 0.0332429 24.0059L0.757271 44.9909C0.777651 45.5766 1.14235 46.0936 1.68832 46.3081C1.85887 46.3768 2.04122 46.4111 2.22786 46.4111C2.62152 46.4111 2.9905 46.2577 3.26831 45.9788L15.1767 34.0704L15.2539 33.9943L15.3311 34.0704L19.1133 37.8526L19.1894 37.9298L19.1133 38.007L7.20487 49.9154C6.92706 50.1921 6.77368 50.5611 6.77368 50.9558C6.77368 51.3506 6.92599 51.7185 7.20487 51.9963C7.48161 52.2741 7.8506 52.4275 8.24426 52.4275C8.63792 52.4275 9.0069 52.2752 9.28578 51.9963L21.1942 40.0868L21.2714 40.0107L21.3486 40.0868L25.1297 43.869L25.2058 43.9462L25.1297 44.0234L13.2224 55.9318C12.8062 56.3458 12.6774 56.9658 12.892 57.5107C13.1076 58.0567 13.6246 58.4224 14.2113 58.4428L35.1953 59.1658C35.2135 59.1669 35.2285 59.1669 35.2424 59.1669H35.2467C35.812 59.1669 36.3333 58.8365 36.5757 58.3248L43.0888 44.5758C43.3537 44.0148 43.2368 43.3444 42.7992 42.9057L40.6657 40.7733L40.5659 40.6736L40.6882 40.6017L40.8716 40.4955C43.4138 39.0324 45.6899 37.3023 47.6378 35.3522C50.5039 32.4851 52.8798 28.9197 54.6989 24.7546C56.1427 21.4531 57.2432 17.7675 57.9694 13.7987C59.1579 7.3018 58.9498 2.2261 58.9219 1.66833V1.6694ZM13.926 31.1035L13.9163 31.1475L13.9099 31.1786L13.8874 31.2012L3.75957 41.329L3.58367 41.5038L3.57508 41.2549L3.01302 24.9402L3.01087 24.8694L3.07523 24.8394L14.8796 19.2488L14.9493 19.2155L15.0029 19.2692L17.071 21.3372L17.1235 21.3898L17.0924 21.4584L17.0463 21.5614C15.7387 24.4318 14.6897 27.6422 13.9281 31.1035H13.926ZM39.9524 44.3227L34.3607 56.127L34.3307 56.1914L34.2599 56.1892L17.9452 55.6261L17.6963 55.6175L17.8711 55.4416L27.999 45.3149L28.0204 45.2934L28.0504 45.287L28.0966 45.2762C31.5612 44.5136 34.7716 43.4646 37.6398 42.1581L37.7406 42.112L37.8103 42.0809L37.8629 42.1334L39.932 44.2015L39.9856 44.2551L39.9524 44.3248V44.3227ZM56.0086 3.30088V3.46499C55.9947 5.30885 55.8542 9.04376 55.0572 13.3547C54.3997 16.9201 53.4118 20.2603 52.1203 23.2798C50.4202 27.2549 48.2117 30.6166 45.5569 33.2724C43.3483 35.481 40.671 37.3784 37.598 38.9134L37.5808 38.922H37.5776L37.5743 38.9241C37.495 38.9552 37.4156 38.996 37.3384 39.0421L37.3362 39.0442H37.333L37.3191 39.0528C34.5216 40.4204 31.3552 41.5124 27.9035 42.304L27.8155 42.3244L27.7576 42.3372L27.7158 42.2954L23.4274 38.0081L23.3512 37.9309L23.4274 37.8536L29.5468 31.7342C29.8246 31.4575 29.978 31.0885 29.978 30.6938C29.978 30.2991 29.8256 29.9312 29.5468 29.6533C29.2711 29.3755 28.9021 29.2221 28.5074 29.2221C28.1127 29.2221 27.7447 29.3745 27.4669 29.6533L21.3476 35.7727L21.2703 35.8489L21.1931 35.7727L16.9047 31.4854L16.8629 31.4425L16.8768 31.3846L16.8972 31.2966C17.6856 27.8524 18.7775 24.686 20.1462 21.8853L20.1483 21.8821L20.1505 21.8789L20.158 21.866C20.2073 21.7813 20.2481 21.7019 20.2771 21.6258V21.6225L20.2792 21.6193L20.2856 21.6054C21.8227 18.5301 23.7202 15.8518 25.9288 13.6432C30.0134 9.5597 35.6114 6.60352 42.5685 4.8562C48.1924 3.44354 53.2327 3.20756 55.7351 3.19254H55.8992L56.0097 3.1904V3.30088H56.0086Z" fill="#121212"/>
</svg>
